<svg xmlns="http://www.w3.org/2000/svg" xmlns:xlink="http://www.w3.org/1999/xlink" viewBox="0 0 836.466 837.182"><defs><style>.a,.af{fill:#a6b2ff;}.a,.b,.c{opacity:0.26;}.b{fill:#e9efff;}.c{fill:#2246ff;}.d{fill:url(#a);}.e{fill:url(#b);}.f{fill:#3d2a51;}.g{fill:#503965;}.h{fill:#f3f2fa;}.i{fill:url(#c);}.j{fill:url(#d);}.k{fill:url(#e);}.l{fill:url(#f);}.m{fill:url(#g);}.n{fill:url(#h);}.o{fill:url(#i);}.p{fill:#1d44ff;}.q{fill:#2347ff;}.r{fill:url(#j);}.s{fill:url(#k);}.t{fill:url(#l);}.u{fill:url(#m);}.v{fill:url(#n);}.w{fill:url(#o);}.x{fill:url(#p);}.y{fill:url(#q);}.z{fill:url(#r);}.aa{fill:#b4daf9;}.ab{fill:#0414c2;}.ac{fill:url(#s);}.ad{fill:url(#t);}.ae{fill:url(#u);}.ag{fill:#ff7402;}.ah{fill:#e3a7ae;}.ai{fill:url(#v);}.aj{fill:#beb2d6;}</style><linearGradient id="a" x1="0.636" y1="0.255" x2="0.725" y2="0.094" gradientUnits="objectBoundingBox"><stop offset="0" stop-color="#f3f2fa"></stop><stop offset="1" stop-color="#dbdae5"></stop></linearGradient><linearGradient id="b" x1="0.328" y1="0.219" x2="0.23" y2="0.058" xlink:href="#a"></linearGradient><linearGradient id="c" x1="0.45" y1="0.17" x2="0.424" y2="-0.006" xlink:href="#a"></linearGradient><linearGradient id="d" x1="0.638" y1="0.25" x2="0.73" y2="0.086" xlink:href="#a"></linearGradient><linearGradient id="e" x1="0.324" y1="0.213" x2="0.224" y2="0.049" xlink:href="#a"></linearGradient><linearGradient id="f" x1="0.5" y1="0.972" x2="0.496" y2="0.286" gradientUnits="objectBoundingBox"><stop offset="0" stop-color="#f9948a"></stop><stop offset="1" stop-color="#ea726c"></stop></linearGradient><linearGradient id="g" x1="0.497" y1="0.773" x2="0.203" y2="0.323" xlink:href="#f"></linearGradient><linearGradient id="h" x1="0.501" y1="0.882" x2="0.497" y2="0.366" xlink:href="#f"></linearGradient><linearGradient id="i" x1="0.425" y1="0.445" x2="0.179" y2="0.906" xlink:href="#f"></linearGradient><linearGradient id="j" x1="0.763" y1="0.772" x2="0.541" y2="0.468" xlink:href="#f"></linearGradient><linearGradient id="k" x1="0.462" y1="0.554" x2="0.244" y2="0.939" xlink:href="#a"></linearGradient><linearGradient id="l" x1="0.484" y1="0.487" x2="0.006" y2="0.498" xlink:href="#f"></linearGradient><linearGradient id="m" x1="0.518" y1="0.415" x2="0.438" y2="1.062" gradientUnits="objectBoundingBox"><stop offset="0" stop-color="#07217e"></stop><stop offset="1" stop-color="#273866"></stop></linearGradient><linearGradient id="n" x1="0.2" y1="0.495" x2="1.35" y2="0.495" xlink:href="#m"></linearGradient><linearGradient id="o" x1="0" y1="0.499" x2="1" y2="0.499" xlink:href="#m"></linearGradient><linearGradient id="p" y1="0.5" x2="1" y2="0.5" gradientUnits="objectBoundingBox"><stop offset="0" stop-color="#ff956e"></stop><stop offset="1" stop-color="#e87054"></stop></linearGradient><linearGradient id="q" x1="0.199" y1="0.665" x2="0.68" y2="0.324" xlink:href="#p"></linearGradient><linearGradient id="r" y1="0.5" x2="1" y2="0.5" gradientUnits="objectBoundingBox"><stop offset="0" stop-color="#fffff8"></stop><stop offset="1" stop-color="#e1edff"></stop></linearGradient><linearGradient id="s" x1="0.462" y1="1.342" x2="0.509" y2="-0.035" xlink:href="#m"></linearGradient><linearGradient id="t" x1="0.588" y1="1.369" x2="0.523" y2="0.597" xlink:href="#m"></linearGradient><linearGradient id="u" x1="0.431" y1="0.535" x2="0.952" y2="0.19" xlink:href="#p"></linearGradient><linearGradient id="v" x1="0.487" y1="0.855" x2="0.487" y2="-1.246" xlink:href="#a"></linearGradient></defs><g transform="translate(-310.113 -360.201)"><g transform="translate(310.114 360.2)"><path class="a" d="M317.459,1406.2c-4.942,10.472-7.766,21.356-7.3,33.122a92.437,92.437,0,0,0,5.765,29.592c8.119,21.062,21,39.123,41.358,49.889,40.182,21.238,88.188,15.884,131.84,13.472,23-1.294,46.123-2.177,69.068.471a171.791,171.791,0,0,1,35.887,9.531c17.885,8.06,34.534,18.591,52.418,26.709,11.472,5.236,23.179,9.943,35.534,12.59a178.94,178.94,0,0,0,38.358,4.118c46.712-.118,90.659-16.884,134.135-31.828,22.826-7.825,45.947-14.943,69.832-18.591a176.3,176.3,0,0,1,38.181-.471,140.527,140.527,0,0,1,28.768,8.119c16.179,7.177,31.886,15.767,48.889,20.708,17.708,5.177,38.593,6.766,56.3.647,18.061-6.236,34.122-18.767,41.947-36.593a95.254,95.254,0,0,0,7.766-29.592c.941-8.825-.059-17.473-1.471-26.239-2.353-14.943-8.648-29.533-16.826-42.182a146.29,146.29,0,0,0-31.71-35.3,206.684,206.684,0,0,0-86.717-40.476c-37.711-7.707-76.186-6.824-114.367-3.824-37.358,2.942-74.6,6.236-112.014,7.648-74.715,2.765-149.489,1.059-224.2.294-37.652-.353-75.3-.529-112.9.235-20.179.412-40.358.647-60.361,3.412-19.473,2.706-37.652,10.237-52.418,23.415A62.014,62.014,0,0,0,317.459,1406.2Z" transform="translate(-310.114 -766.824)"></path><path class="b" d="M377.261,1361.325a39.563,39.563,0,0,0-13.237,9.119c-17.12,18.355-14.767,46.065-9.648,68.656a117.922,117.922,0,0,0,9.884,27.239c6,11.825,14.943,22.415,24.238,31.828a389.206,389.206,0,0,0,56.772,47.182c20.179,14,41.711,25.18,64.42,34.593,23.121,9.59,46.888,15.3,71.715,18.532,49.418,6.53,101.013-2.353,144.724-26.474,36.24-20,65.773-50.242,102.366-69.715,3.236-1.706,6.53-3.353,9.884-4.883a160.23,160.23,0,0,1,31.769-8.472c30.592-3.412,61.772-1.177,92.423-.471,16.826.353,33.71.765,50.536,1.118,17.885.412,36.416.53,53.713-4.706,19.414-5.942,36.593-17.943,47.3-35.3a66.5,66.5,0,0,0,9.472-32.122c.529-11.237-2.883-21.885-7.589-31.886a68.37,68.37,0,0,0-15.3-20.355c-6.236-5.765-13.413-11.119-21.238-14.59a113.669,113.669,0,0,0-32.71-9.3,209.534,209.534,0,0,0-27.18-1.824c-67.656-.059-135.37,1.353-203.026,2q-101.925,1.059-203.79,2.059c-68.538.706-137.782-1.118-205.614,10.531-7.942,1.353-15.826,2.942-23.709,4.765A30.793,30.793,0,0,0,377.261,1361.325Z" transform="translate(-326.792 -763.367)"></path><path class="c" d="M434.9,1443.648a118.246,118.246,0,0,0,5.883,13.472,105.278,105.278,0,0,0,26.886,33.475c13.708,11.119,29,19.238,46.3,23.3,16.708,3.942,34.063,4.765,51.183,4.354,32.3-.824,64.891-2.706,96.953-6.471,34-4,67.244-10.413,99.483-22.238,31.769-11.649,62.831-26,96.424-31.239,40.005-4.589,80.187,1.824,120.309,1.059,21.885-.412,44.417-2.824,65.244-9.825,14.061-4.765,26.651-10.707,35.416-23.179a35.831,35.831,0,0,0,6.06-22.179,41.582,41.582,0,0,0-11.413-25.885,44.763,44.763,0,0,0-21.532-12.413c-9.884-2.236-19.355-1.53-29.121.588-5.883,1.235-11.59,3-17.414,4.295-5.118,1.118-10.237,2.059-15.414,2.824-52.183,6.236-104.425-3.294-156.549-5.824-55.007-2.647-109.837,3.883-164.727,5.765-30.121,1.059-60.125.294-90.011-3.53-25.18-3.53-50.595-8.06-76.068-7-28.768,1.235-68.479,8.413-78.069,40.417A40.9,40.9,0,0,0,434.9,1443.648Z" transform="translate(-356.606 -772.975)"></path><g transform="translate(87.474 120.235)"><g transform="translate(487.676 266.131)"><g transform="translate(0 0)"><path class="d" d="M1491.107,1137.5H1481.4l19.767,178.846h9.766Z" transform="translate(-1389.8 -1089.788)"></path><path class="e" d="M1377.126,1137.5,1357.3,1316.346h9.707l19.826-178.846Z" transform="translate(-1338.709 -1089.788)"></path><path class="f" d="M1454.893,1093.662v-6.53a7.031,7.031,0,0,0-3.765-2.236c-8.942-10.119-32.828-17.3-60.831-17.3-35.71,0-64.6,11.707-64.6,26.121s28.945,26.121,64.6,26.121S1454.893,1108.076,1454.893,1093.662Z" transform="translate(-1325.7 -1061.011)"></path><ellipse class="g" cx="64.596" cy="26.121" rx="64.596" ry="26.121" transform="translate(0)"></ellipse><rect class="h" width="71.068" height="10.354" transform="translate(33.357 116.309)"></rect></g></g><rect class="i" width="55.595" height="275.564" transform="translate(297.449 240.339)"></rect><g transform="translate(0 289.346)"><path class="j" d="M482.307,1316.346,502.133,1137.5h-9.766L472.6,1316.346Z" transform="translate(-464.481 -1089.788)"></path><path class="k" d="M606.407,1137.5H596.7l19.767,178.846h9.707Z" transform="translate(-515.572 -1089.788)"></path><path class="f" d="M458.8,1087.091v6.53c0,14.414,28.945,26.121,64.6,26.121,35.71,0,64.6-11.708,64.6-26.121s-28.945-26.121-64.6-26.121c-28.062,0-51.948,7.236-60.831,17.3A7.79,7.79,0,0,0,458.8,1087.091Z" transform="translate(-458.8 -1060.97)"></path><ellipse class="g" cx="64.596" cy="26.121" rx="64.596" ry="26.121"></ellipse><rect class="h" width="71.068" height="10.354" transform="translate(24.827 116.309)"></rect></g><g transform="translate(11.571)"><path class="l" d="M673.194,1291.883,636.542,1287c-2.647,12.59-5.236,26.415-7.589,41.476a55.417,55.417,0,0,1-9.413,23.591c-4.53,6.413-9.178,15.061-7.648,21.65,2.824,12,72.892,7.236,82.775,5.883,9.884-1.412,2.118-13.766-13.06-17.3s-36.828-2.353-34-13.3C648.72,1344.537,660.133,1320.122,673.194,1291.883Z" transform="translate(-533.275 -861.99)"></path><path class="m" d="M872.946,1361.878c28.651,2.118,70.362,4.236,72.127,0s-8.472-11.648-24.415-13.413c-15.884-1.765-31.122-22.65-31.122-22.65-3.706-2.236-15.414-35.416-27.415-71.715L837,1271.4c12.472,21.532,24.238,40.887,27.062,47.006C870.475,1332.169,844.295,1359.76,872.946,1361.878Z" transform="translate(-626.072 -848.446)"></path><path class="n" d="M586.013,727.033c-1.412.412-3.648.883-6.413,1.412l23.3,20.826,24-11.707c-1.883-.529-3.824-1.059-5.883-1.706-13.766-4.236-5.177-24.474-5.177-24.474l-8.942-8.766L591.248,698.5C591.19,698.5,594.131,724.562,586.013,727.033Z" transform="translate(-520.103 -619.71)"></path><path class="o" d="M751.5,764.819l23.532,12.3c2.706-26.18,2.589-51.712,2.589-51.712,9.884-4.942,19.061-28.3,22.3-32.886,3.177-4.589,6-21.944,0-24.415s-28.651,28.3-29,29.357-5.295-20.12-8-19.767,1.647,7.766-.118,19.414.706,23.709,0,26.18C762.384,724.7,756.5,746.405,751.5,764.819Z" transform="translate(-590.873 -607.137)"></path><path class="p" d="M499.019,935.8c.471,5.412.883,8.884,1.177,9.413,1.412,2.471-25.415,38.417-21.3,62.008,4.765,27.356,4.354,44.006,126.31,52.183,0,0-18.767,45.947-31,124.427-.118.588-.177,1.177-.294,1.706a186.652,186.652,0,0,0,22.473,9.884c11.06-25.3,44.241-94.247,57.36-128.016a11.349,11.349,0,0,1,1.353,3.589c1.941,12.766,22.179,48.3,39,77.127.412,1.118.883,2.177,1.294,3.294a134.013,134.013,0,0,1,4.942,16.355c1.118,4.765,1.588,10,4.765,13.943,3.824,4.824,9.531,4.412,15,3.706,3.059-.412,6.06-.765,9.119-1.177,2.942-.412,5.824-1,7.648-3.53,3.589-5-.412-10.413-3.412-14.531-2.883-3.883-5.648-7.942-8.236-12.06C708.457,1106,685.807,1031.694,684.1,1026.4c-2.471-7.766-70.362-38.887-90.129-46.653-12.649-4.942-16.767-22.768-15.178-36.887Z" transform="translate(-478.468 -717.404)"></path><path class="q" d="M499.019,935.8c.471,5.412.883,8.884,1.177,9.413,1.412,2.471-25.415,38.417-21.3,62.008,4.765,27.356,4.354,44.006,126.31,52.183,0,0-13,31.886-24.415,87.835a104.687,104.687,0,0,1-7.354,19.591c-2.118,4.295-5.059,8.472-5.824,13.3a13.942,13.942,0,0,0,4.706,12.472c3.589,3.118,8.119,4.589,12.649,5.766,4.118,1.059,8.707,2,12.884.706,4.53-1.412,7.3-5.118,8.766-9.472,1.647-4.883,2.471-10.178,3.412-15.237.824-4.471,1.53-8.942,2.118-13.472,13.943-30.121,31.769-68.538,40.946-91.835,0,0,7.119-23.238,7.648-36.122s-76.716-35.357-96.306-43.123c-15.884-6.295-6.118-40.064-5.824-51.83Z" transform="translate(-478.468 -717.404)"></path><path class="g" d="M646.87,706.552a9.458,9.458,0,0,0-7.472-9.531c-5.707-1.235-10.766,2.177-14.119,6.471-6.766,8.589-11.649,19.767-10.413,30.945,1.118,10.354,7.177,19.65,17.3,23.062,9.06,3.059,22.179-.529,24.18-11.237a15.717,15.717,0,0,0,.235-3.706,27.909,27.909,0,0,0-.765-15.061c-1.883-5.648-6.471-9.766-8.942-15.061a20.175,20.175,0,0,1,.294-3.294A6.164,6.164,0,0,0,646.87,706.552Zm6.471,19.12a26.2,26.2,0,0,1,2.236,11.943,53.5,53.5,0,0,0-4.765-9.766,30.592,30.592,0,0,1-3.883-12.06C649.047,719.083,651.753,722.083,653.341,725.672Z" transform="translate(-534.543 -618.996)"></path><path class="g" d="M697.578,614.82a28.542,28.542,0,0,0-8.177-26.886c-3.706-3.471-9.354,2.118-5.648,5.648a20.34,20.34,0,0,1,6.118,19.179C688.813,617.644,696.519,619.821,697.578,614.82Z" transform="translate(-562.484 -573.741)"></path><path class="r" d="M626.751,670.094c19.179,1.177,24.238-39.946,20.12-66.773-1.53-10.06-8.883-15-17.473-17.237-19.944-5.177-40.535,5.412-48.83,24.238-3.294,7.53-5.236,16.12-3.236,24.65C583.1,658.974,607.572,668.976,626.751,670.094Z" transform="translate(-518.837 -572.89)"></path><path class="s" d="M510.393,770.656c-3.059,21.12.765,86.187,2.294,93.129,12,.471,49.418,1.647,78.657-1.647.882-7.942,3.648-14.708,7.766-17.3,11.3-7.06,9.531-39.593,9.531-39.593s22.3,58.654,45.947,57.242c8.589-.529,14-14.766,17.414-32.769,5.53-5.118,8.707-13.413,9.531-20.355.471-4.236.824-9.942-2.765-13-3.589-3.118-8.825-1.118-12.649-3.706-3.53-2.353-4.236-7.236-7.942-9.413-3.942-2.353-8.648-.176-10.648,3.706-1.235,2.412-1.294,5.177-1.294,7.824-.059,3.177-.118,6.413-.176,9.589-.059,2.294.412,7.3-.588,10.766a3.633,3.633,0,0,0-2.059,2.647c-3.883-7.177-15.708-29.533-21-43.653-3.589-9.472-8.354-13.766-14.3-16.473a4.634,4.634,0,0,0,2-3.648,4.3,4.3,0,0,0-4.236-4.236,10.779,10.779,0,0,0-7.354,2.412c-1.765,1.353-3.706,3.824-5.883,4.53-1.059.353-2.177-.118-3.236-.412a18.709,18.709,0,0,0-5.354-1c-3.471,0-6.648,1.883-10.06,1.883-2.765-.059-4.883-3.236-7.177-4.53a13.852,13.852,0,0,0-4.883-1.471c-1.412-.177-3.177-.118-4.53-.765-2.236-1.118-3.412-4.471-4.883-6.354-2.236-2.824-5.236-4.824-8.942-4.765-4.471.059-5.295,5.824-2.353,7.824C528.278,750.359,512.452,756.36,510.393,770.656Z" transform="translate(-491.137 -636.506)"></path><path class="t" d="M704.5,931.085c-4.412-5.295-30.886-4.706-46.359-9.766-8.589-2.824-33.887-7.53-54.713-11.119L592.6,938.5c28.886-.706,61.184-3.648,63.832-4.412C660.962,932.556,708.909,936.38,704.5,931.085Z" transform="translate(-525.455 -706.865)"></path><path class="h" d="M530.549,757.7c-8.3,2.765-14.884,8.3-17.532,11.766a16.27,16.27,0,0,0-2.647,5.471c-5.236,19.061-3.942,89.011,1.412,96.424,3.294,4.53,27.886,4.942,53.007,4.059a3.632,3.632,0,0,0,4.236.176,7.687,7.687,0,0,0,3.294-7.648c-.353-2.765-2.059-5.177-1.53-8.06.529-2.647,2.706-4.177,4.059-6.413a7.372,7.372,0,0,0,.059-8.236c-3.412-5-11.825-3.471-16.943-3.53-6.707,0-13.413,0-20.179-.059C545.433,782.35,530.549,757.7,530.549,757.7Z" transform="translate(-490.231 -644.082)"></path><path class="g" d="M625.358,583c-5.177-14.355-24.179-19.532-37.946-18.238a47.153,47.153,0,0,0-36.3,23.121c-6.707,11.59-6.413,24.944-9.06,37.593-2.589,6.824-7.236,12.649-11.472,18.649-4.765,6.707-8.707,13.766-9.766,22.062a31.5,31.5,0,0,0,6.707,23.944,29.285,29.285,0,0,0,11.884,11.3,30.226,30.226,0,0,0,24.827.882,12,12,0,0,0,5.471-2.236,3.886,3.886,0,0,0,2.353-3.236,7.961,7.961,0,0,0,.471-2.118,27.611,27.611,0,0,0-.471-6.236,72.119,72.119,0,0,1-.471-8,62.394,62.394,0,0,1,.824-9.942h0c.941-2.236,1.883-4.412,2.883-6.648a39.08,39.08,0,0,0,6.53-9.178c3.765-8.354,3.53-17.59,2.883-26.533a29.018,29.018,0,0,1,2.412-6.883c2.294-4.471,6.06-7.354,10.237-9.707,3.942-.294,7.942-.294,11.707-1.647a23.375,23.375,0,0,0,15-18.3.528.528,0,0,0-.118-.53,22.084,22.084,0,0,0,1.412-5.648A3.015,3.015,0,0,0,625.358,583Zm-86.364,52.713c-6.295,14.884-18.885,29-14.708,46.3-2.706-6.53-2.706-14.119-.824-20.885,2.942-10.472,10.766-18.414,16.3-27.474C539.524,634.3,539.288,635.01,538.994,635.716Zm39.887,21.238a15.879,15.879,0,0,1-1.588,2.294A89.04,89.04,0,0,0,582,645.423a95.251,95.251,0,0,0,1.589-10.237C583.706,642.776,582.882,650.365,578.881,656.954ZM616,603.83c-4.118,3.883-9.119,5.471-14.649,5.883a1.3,1.3,0,0,0-.471.059c2.294-1.118,4.589-2.118,6.766-3.236,5.295-2.647,10.354-6.06,13.708-10.707A21.313,21.313,0,0,1,616,603.83Z" transform="translate(-495.794 -564.574)"></path><path class="g" d="M694.666,1426.227c9.884-1.412,2.118-13.766-13.06-17.3-1.588-.353-3.294-.706-5.059-1a18.466,18.466,0,0,0-1.353,3.942c-1.412,6.354-9.884,5.648-31.122,2.824-15.414-2.059-22.768-10.06-25.65-14.3-4.118,6.177-7.942,13.943-6.53,20C614.715,1432.345,684.782,1427.58,694.666,1426.227Z" transform="translate(-533.274 -908.676)"></path><path class="g" d="M960.641,1419.844c1.588-3.883-6.824-10.413-20.473-12.884-4,1.883-9.766,3.412-17.708,2.942-14-.765-34.828-10.237-44.535-15-3.648,11.884-7.648,23.532,10.59,24.885C917.165,1421.962,958.817,1424.08,960.641,1419.844Z" transform="translate(-641.641 -906.412)"></path></g><g transform="translate(371.534 5.411)"><path class="u" d="M1223.373,1399.186c11.825,9.943,36.416,2.824,39.828-15.59,3.412-18.355,8.119-35.475,3.706-49.183-4.354-13.708-20.414,6.06-20.414,6.06a16.728,16.728,0,0,1-1.647,12c-3.412,5.883-33.3,36.711-21.473,46.712Z" transform="translate(-1064.104 -908.333)"></path><path class="q" d="M1240.9,1102.7v143.371s14.649,13.708,36.769,0c0,0,11.531-77.539,8.707-105.837s-2.471-33.592-2.471-33.592Z" transform="translate(-1072.452 -814.931)"></path><path class="v" d="M1393.3,1155.694l.118-1.236a.182.182,0,0,0-.118-.059Z" transform="translate(-1135.194 -836.216)"></path><path class="w" d="M1423.663,1154c5.589,7.177,22.12,5.589,25.827,0s10.884-23.356-19.944-32.357-33.3-9.942-33.3-9.942l-2.647,25.18C1395.482,1137.644,1418.309,1147.116,1423.663,1154Z" transform="translate(-1135.318 -818.637)"></path><path class="q" d="M1253.821,1012.211l-102.307.824s-35.357-11.531-38.181,16.178,19.3,37.475,69.126,48.3a538.281,538.281,0,0,1,89.364,27.945s16.179-21.3,14-35.181c-.118-.647-.235-1.235-.294-1.765l-.824-.294-35.887-12.531,17.767-26.121c-.118,0,.706-10.06-12.766-17.355Z" transform="translate(-1019.836 -777.038)"></path><path class="x" d="M983.123,893.562c-2.589,2.118-6.177,4.883-8.06,5.471-3.177,1-18.355.824-19.708,3.059-2.53,4.236.177,13.06,22.062,9.06S1005.89,899.5,1005.89,899.5s55.478-22.415,73.3-28.357a3.135,3.135,0,0,1,4.059,2.471l5.177,22.3h49.947l47.888-.824,5.059-67.126,8.472,35.181s-3.647,35.593-8.472,49.3c-4.824,13.766-13.766,16.59-19.414,24.65-.059.059-.118.177-.177.235a12.7,12.7,0,0,0,5.471,18.767c19.414,8.354,23.062-5.412,23.768-13.708.824-9.3,22.65-61.831,25.886-71.95s-12.943-90.129-14.943-102.248-27.062-15.767-40.005-17.355-16.59-24.238-16.59-24.238l-17,8.06-10.531,8.589a153.355,153.355,0,0,1-24.238,10.825c-8.883,2.942-27.356,8.825-29,14.884-1.588,6.06,1.706,60.243-3.412,66.655-2.589,3.236-66.008,45.594-73.3,47.241,0,0-21.885-.765-27.3,2.53s-3.236,5.765,3.412,5.53c3.118-.118,6-.118,8.177-.059a1.527,1.527,0,0,1,1,2.706Z" transform="translate(-954.575 -660.095)"></path><path class="y" d="M1227.29,706.776c5.707,1.059,46.065-6.824,49.006-39.123,2.941-32.357-8.707-46.418-35.181-43.947,0,0-28.062,2.059-29.3,33.71-.059,1.824-.118,3.648-.118,5.354l2.236,20.885c3.294,14.649,9.531,22.473,13.354,23.121Z" transform="translate(-1060.431 -617.621)"></path><path class="z" d="M1046.9,895.545l6.589,17.532c14.12-6.118,48.594-19.826,63.714-24.827a3.135,3.135,0,0,1,4.059,2.471l5.177,22.3h49.948l47.888-.824,5.059-67.126,8.472,35.181s-3.647,35.593-8.472,49.3a33.706,33.706,0,0,1-1.294,3.236c5.648,1.412,12.119,3.059,17.943,4.471,6.942-18.885,16.826-43.182,18.943-49.771,3.236-10.119-12.943-90.129-14.943-102.248-2-11.825-25.885-15.59-39.064-17.237-32.239,26-55.419,7-61.949.412-2.353.941-4.824,1.883-7.354,2.706-8.883,2.942-27.356,8.825-29,14.884-1.588,6.06,3,66.42-2.118,72.833C1108.319,861.6,1066.608,885.309,1046.9,895.545Z" transform="translate(-992.584 -677.138)"></path><g transform="translate(148.981 96.568)"><path class="aa" d="M1274.118,935.066c1.118-.176.647-1.941-.471-1.765a115.651,115.651,0,0,1-47.124-1.824.915.915,0,0,0-.471,1.765,117.179,117.179,0,0,0,48.065,1.824Z" transform="translate(-1215.058 -840.995)"></path><path class="aa" d="M1278.53,976.608c1.177.176,1.118-1.647,0-1.824-17.943-2.294-36.475,2.647-54.007-3.118-1.118-.353-1.589,1.353-.471,1.765,17.708,5.765,36.358.824,54.477,3.177Z" transform="translate(-1214.234 -857.535)"></path><path class="aa" d="M1223.6,912.338c10.119-1.294,19.944,2.412,29.945,3.295a95.531,95.531,0,0,0,29.768-2.118c1.118-.235.647-2-.471-1.765a92.741,92.741,0,0,1-30.416,1.941c-9.589-1-19.061-4.412-28.827-3.177C1222.48,910.69,1222.421,912.514,1223.6,912.338Z" transform="translate(-1213.956 -832.269)"></path><path class="aa" d="M1222.3,823.517c5.177-1,10.354-.294,15.531.353,5.118.647,10.3,1.059,15.473,1.235a164.6,164.6,0,0,0,29.474-1.706c1.118-.176.647-1.883-.471-1.765a163.728,163.728,0,0,1-31.3,1.53c-9.589-.471-19.649-3.294-29.121-1.412-1.235.235-.765,2,.412,1.765Z" transform="translate(-1213.307 -795.572)"></path><path class="aa" d="M1209.216,782.23a39.083,39.083,0,0,1,14.531-2.942q-1.324-.794-2.471-1.588a40.568,40.568,0,0,0-13,3C1207.216,781.112,1208.157,782.7,1209.216,782.23Z" transform="translate(-1207.811 -777.7)"></path><path class="aa" d="M1271.1,949.942a.915.915,0,0,0-.471-1.765,99.96,99.96,0,0,1-52.007.412.915.915,0,0,0-.471,1.765A101.655,101.655,0,0,0,1271.1,949.942Z" transform="translate(-1211.805 -847.87)"></path><path class="aa" d="M1244.439,997.614c9.236.412,18.473,2.118,27.709,1.059,1.118-.118,1.177-1.941,0-1.824-9.237,1-18.473-.706-27.709-1.059-9.472-.412-18.943.059-28.356.588-1.177.059-1.177,1.883,0,1.824C1225.5,997.673,1234.967,997.2,1244.439,997.614Z" transform="translate(-1210.853 -867.421)"></path><path class="aa" d="M1318.99,778.3c-4,.176-8,.412-12,.529-1.236.706-2.412,1.353-3.589,1.941,5.177-.177,10.413-.412,15.59-.647,1.177-.059,1.177-1.883,0-1.824Z" transform="translate(-1247.164 -777.946)"></path><path class="aa" d="M1243.437,871.906c4.883-.765,9.766-2.059,14.766-1.883,8.589.353,16.708,6.295,25.3,2.765,1.059-.412.588-2.177-.471-1.765-8.648,3.589-17.237-2.883-25.944-2.824-4.236,0-8.354.941-12.472,1.647a68.845,68.845,0,0,1-15.531.824c-1.177-.059-1.177,1.765,0,1.824A68.866,68.866,0,0,0,1243.437,871.906Z" transform="translate(-1216.205 -814.958)"></path><path class="aa" d="M1215.423,802.826c10.766-2.883,21.767.118,32.592.824,11.06.706,22.12-.118,33.122-.941,1.177-.059,1.177-1.883,0-1.824-11.413.824-22.885,1.706-34.3.882-10.648-.765-21.356-3.471-31.886-.647-1.118.235-.647,2,.471,1.706Z" transform="translate(-1210.488 -786.824)"></path><path class="aa" d="M1225.623,850.317c9.413-3.471,20.12.118,29.768.765a135.309,135.309,0,0,0,30.063-1.471c1.118-.177.647-1.941-.471-1.765a134.508,134.508,0,0,1-31.886,1.235c-9.178-.765-19-3.824-27.945-.529C1224.035,848.964,1224.506,850.729,1225.623,850.317Z" transform="translate(-1214.687 -806.253)"></path><path class="aa" d="M1279.265,894.256c1.177-.059,1.177-1.883,0-1.824a214.747,214.747,0,0,1-48.359-2.942c-1.118-.176-1.647,1.53-.471,1.765A215.514,215.514,0,0,0,1279.265,894.256Z" transform="translate(-1216.851 -823.718)"></path></g><path class="ab" d="M1354.124,785.42c-1.883-11.472-24.415-15.355-37.828-17.12-9.472,27.533-13.531,56.654-15.178,85.658-.883,15.826-1.118,31.71-1.118,47.535V912.73h1.177a3.566,3.566,0,0,0,1.765,2.412,11.591,11.591,0,0,0,7.119,1.588c2.647-.176,5.707-1.647,8.3-1.118,2.765.529,4.589,2.53,7.589,1.177a5.083,5.083,0,0,0,.941-.588,3.769,3.769,0,0,0,1.588-1.471l.706-1.235c5.648-3.236,6.413-16.767,6.118-21.532a126.614,126.614,0,0,0-1.706-13.413v-.412a31.31,31.31,0,0,0-.706-4.706,52.98,52.98,0,0,1-.294-13.649,2.62,2.62,0,0,0-.177-1.353l1-13.355,8.472,35.181a5.1,5.1,0,0,1-.059.647,259.377,259.377,0,0,1-8.178,31.239,39.922,39.922,0,0,1-6.707,12.943c-3.059,3.824-6.118,8.236-5.06,13.414,1.647,8.413,14.3,13.237,21.944,11.59.471-.118.882-.235,1.294-.353l.53.177a1.091,1.091,0,0,0,.118-.412c3.53-1.588,4.765-5.059,5.177-9.06.177-1.588.294-3.236.412-4.824.412-.824,1.588-1.471,2.118-2.059a7.108,7.108,0,0,0,1.53-2.765,6.273,6.273,0,0,0-.706-4.824c6.177-16.237,12.943-33.122,14.649-38.358,3.353-10-12.825-90.07-14.825-102.189Z" transform="translate(-1096.783 -677.262)"></path><path class="ac" d="M1264.989,723.488c1.941-1.235.882-4.354-1.059-3.059-8.354,5.412-19-.176-27.3-2.706a28.075,28.075,0,0,0-12.472-1.294,32.815,32.815,0,0,0-9.06,3l.235,2.353c3.294,14.649,9.589,22.473,13.413,23.179,4.118.765,26.239-3.118,39.358-17.473a1.564,1.564,0,0,0-1.588.118c-1.294.882,1.883-1.941.588-1.059l-1.471-1.824C1266.4,724.43,1264.165,723.959,1264.989,723.488Zm-24.65,4.412c-3,2.824-6.471,5.648-10.766,5.824-4,.177-7.236-2.471-9.06-5.883a1.723,1.723,0,0,1,0-1.765,1.055,1.055,0,0,1,.294-.412c4.883-6.06,12.237-1,18.3-.824A1.8,1.8,0,0,1,1240.338,727.9Z" transform="translate(-1061.831 -655.806)"></path><path class="ad" d="M1251.329,678.884q.441,2.559,1.059,5.118v.059a2.408,2.408,0,0,0,3.824,1.294,45.249,45.249,0,0,0,3.942-3.353c1.589-1.647,6.648-12.06,7.119-13.237,0-.059.059-.118.059-.176a76.586,76.586,0,0,0,3.353-15.826c.412-6.06.118-13-1.883-18.826-2.118-6-6.471-10.178-12.06-13.119-2.942-1.53-6-2.706-9.06-3.942a38.881,38.881,0,0,0-10.531-3.177c-6.118-.706-12.766,1.294-18.414,3.53-6,2.353-11.825,5.412-18.179,6.824a13.679,13.679,0,0,1-4.883.471c-1.294-.177-2.471-.765-3.824-.941-2.236-.294-4.118.412-5.06,2.589a6.249,6.249,0,0,0,.706,6.413,2.774,2.774,0,0,1,.353.883c1.471,7,5.471,13.766,13.3,14.472,5.06.471,9.178-3.177,14.178-3.353,4-.118,7.766,1.059,11.59.176a2.4,2.4,0,0,1,2.471.941c.235.353.471.647.706.941,4.059,4.824,10.707,4.648,15.355,8.472a9.976,9.976,0,0,1,1.706,1.824,2.314,2.314,0,0,0,2.353,1,6.122,6.122,0,0,1,7.236,5.589c.647,5.059-1.883,11.648-5.295,15.3,0-.059-.059,0-.118.059Z" transform="translate(-1049.936 -613.555)"></path><path class="ae" d="M983.123,999.9c-2.589,2.118-6.177,4.883-8.06,5.471-3.177,1-18.355.824-19.708,3.059-2.53,4.236.177,13.06,22.062,9.06s28.474-11.648,28.474-11.648l9.119-3.648-8.589-17.3c-4.177,2.412-7.236,4-8.531,4.295,0,0-21.885-.765-27.3,2.53-5.412,3.236-3.236,5.765,3.412,5.53,3.118-.118,6-.118,8.177-.059a1.524,1.524,0,0,1,.941,2.706Z" transform="translate(-954.575 -766.434)"></path><path class="ab" d="M1155.627,855.316a120.5,120.5,0,0,0,.294-29.474c-2.353-18.826-8.942-36.652-15.884-54.242-.941.353-1.941.706-2.883,1-8.884,2.942-27.356,8.825-29,14.884-1.588,6.06-.118,61.831-5.236,68.185-.471.588-3,1.53-6.471,4-9.766,4.824-20.179,8.942-28.945,15.472-2.412,1.824-4.412,3.883-6.648,5.883-1.412,1.235-1.589,1.118-3.236.529a8.591,8.591,0,0,0-5.295-.471c-2.765.824-3.589,2.942-5.118,5.059-1.53,2.059-4.412,2.177-6.589,3.353-6.707,3.824-4.236,11.06-2.471,17.061,1.471,5.059,3.118,15.237,10.825,13.3,2.824-.706,3.471-3.706,5.589-4.824,1.471-.765,3.647-.824,5.236-1.412,1.706-.647,3.353-1.412,5-2.177,6-2.706,12-5.471,17.885-8.413,4.059-2.059,8.06-4.236,11.943-6.648,7.236-2.883,13.766-5.354,18.12-6.824a3.013,3.013,0,0,1,3.177.765c1,1.941.706,4.059.53,6.236a40.409,40.409,0,0,0-.118,8c.412,4.059,1.177,10,6.06,10.943a3.876,3.876,0,0,0,1.647,0,5.058,5.058,0,0,0,2.471.941c4.942.588,9.354,3.295,14.414,3.295a13.333,13.333,0,0,0,6.118-1.353,6.364,6.364,0,0,0,2.353-.647,5.916,5.916,0,0,0,3.059-3.471h.412v-1.412c-.294-8.883-.941-17.708-.706-26.592.353-10.237,2.177-20.532,3.471-30.945Z" transform="translate(-988.179 -678.621)"></path></g></g><g transform="translate(267.849)"><path class="af" d="M1001,484.348c7.354,19.3,35.475,33.71,69.009,33.71,3.236,0,6.471-.118,9.589-.412l51.948,23.121-20.591-30.827c18.061-7.942,29.886-21,29.886-35.71,0-24.18-31.71-43.829-70.891-43.829a106.407,106.407,0,0,0-36,6.06,31.341,31.341,0,0,1,.471,5.765C1034.475,459.4,1021.355,474.641,1001,484.348Z" transform="translate(-862.394 -389.101)"></path><path class="ag" d="M936.951,407.618c-4.648-26.65-41.182-47.418-85.54-47.418-47.535,0-86.011,23.827-86.011,53.183,0,17.885,14.3,33.71,36.24,43.358L776.7,494.158l59.125-28.474a135.41,135.41,0,0,0,15.59.882c19.767,0,38-4.118,52.536-11.06a28.313,28.313,0,0,1-1.883-10.119C902.064,429.326,916.066,415.266,936.951,407.618Z" transform="translate(-765.4 -360.2)"></path><path class="ah" d="M1033.157,446.565a37.5,37.5,0,0,0-.471-5.765c-20.885,7.648-34.887,21.65-34.887,37.711a28.313,28.313,0,0,0,1.883,10.119C1020.038,478.922,1033.157,463.685,1033.157,446.565Z" transform="translate(-861.077 -393.382)"></path><g transform="translate(48.536 46.947)"><circle class="h" cx="6.236" cy="6.236" r="6.236"></circle><circle class="h" cx="6.236" cy="6.236" r="6.236" transform="translate(31.239)"></circle><circle class="h" cx="6.236" cy="6.236" r="6.236" transform="translate(62.537)"></circle></g><g transform="translate(174.846 78.951)"><circle class="h" cx="6.236" cy="6.236" r="6.236"></circle><circle class="h" cx="6.236" cy="6.236" r="6.236" transform="translate(31.239)"></circle><path class="h" d="M1181.272,500.636a6.236,6.236,0,1,0-6.236,6.236A6.239,6.239,0,0,0,1181.272,500.636Z" transform="translate(-1106.322 -494.4)"></path></g></g><path class="ai" d="M1060.045,963.713c2.92,0,5.283-3,5.283-6.707s-2.364-6.707-5.283-6.707H700.966c-2.92,0-5.283,3-5.283,6.707s2.364,6.707,5.283,6.707Z" transform="translate(-468.849 -603.139)"></path></g><g transform="translate(641.03 654.766)"><path class="aj" d="M995.792,938.032a3.139,3.139,0,0,0,3.118-3.118v-11.3a3.139,3.139,0,0,0-3.118-3.118H875.718a3.139,3.139,0,0,0-3.118,3.118v11.3a3.139,3.139,0,0,0,3.118,3.118Z" transform="translate(-872.6 -885.437)"></path><path class="g" d="M1007.792,908.232a3.139,3.139,0,0,0,3.118-3.118v-11.3a3.139,3.139,0,0,0-3.118-3.118H887.718a3.139,3.139,0,0,0-3.118,3.118v11.3a3.139,3.139,0,0,0,3.118,3.118Z" transform="translate(-877.54 -873.168)"></path><path class="aj" d="M1003.292,878.432a3.139,3.139,0,0,0,3.118-3.118v-11.3a3.139,3.139,0,0,0-3.118-3.118H883.218a3.139,3.139,0,0,0-3.118,3.118v11.3a3.139,3.139,0,0,0,3.118,3.118Z" transform="translate(-875.688 -860.9)"></path><rect class="h" width="7.06" height="17.532" transform="translate(17.473 35.063)"></rect><rect class="h" width="7.06" height="17.532" transform="translate(37.122 17.532)"></rect><rect class="h" width="7.06" height="17.532" transform="translate(25.709 0.059)"></rect></g></g></svg>